<?xml version="1.0" encoding="utf-8"?><!DOCTYPE svg PUBLIC "-//W3C//DTD SVG 1.1//EN" "http://www.w3.org/Graphics/SVG/1.1/DTD/svg11.dtd" [<!ENTITY ns_flows "http://ns.adobe.com/Flows/1.0/">]><svg version="1.1"	 xmlns="http://www.w3.org/2000/svg" xmlns:xlink="http://www.w3.org/1999/xlink" xmlns:a="http://ns.adobe.com/AdobeSVGViewerExtensions/3.0/"	 x="0px" y="0px" width="73px" height="80px" viewBox="0 0 73 80" overflow="visible" enable-background="new 0 0 73 80"	 xml:space="preserve"><defs>
</defs><g><path fill="#2D2D2D" d="M0,15.2c0.1-0.7,0.7-1.3,1.4-1.3h50.4c0.8,0,1.5,0.6,1.5,1.4v8c0,0.8-0.7,1.4-1.5,1.4h-5.2H1.5H0v-1.4v-8
		L0,15.2L0,15.2z"/></g><g><path fill="#2D2D2D" d="M0,15.2c0.1-0.7,0.7-1.3,1.5-1.3h50.4c0.8,0,1.5,0.7,1.5,1.4v8c0,0.8-0.7,1.4-1.5,1.4H0V15.2z"/></g><g><path fill="#2D2D2D" d="M0,43.1c0.1-0.7,0.7-1.3,1.5-1.3h50.4c0.8,0,1.5,0.7,1.5,1.4v8c0,0.8-0.7,1.4-1.5,1.4H0V43.1z"/></g><g><path fill="#2D2D2D" d="M0,70.4c0.1-0.7,0.7-1.3,1.5-1.3h16.8c0.8,0,1.5,0.7,1.5,1.4v8c0,0.8-0.7,1.4-1.5,1.4H0V70.4z"/></g><g><path fill="#18B9E8" d="M73,1.3C72.9,0.6,72.3,0,71.5,0H21.1c-0.8,0-1.5,0.7-1.5,1.4v8c0,0.8,0.7,1.4,1.5,1.4H73V1.3z"/></g><g><path fill="#18B9E8" d="M73,29.2c-0.1-0.7-0.7-1.3-1.5-1.3H21.1c-0.8,0-1.5,0.7-1.5,1.4v8c0,0.8,0.7,1.4,1.5,1.4H73V29.2z"/></g><g><path fill="#18B9E8" d="M73,57c-0.1-0.7-0.7-1.3-1.5-1.3H21.1c-0.8,0-1.5,0.7-1.5,1.4v8c0,0.8,0.7,1.4,1.5,1.4H73V57z"/></g></svg>
