<?xml version="1.0" encoding="utf-8"?><!DOCTYPE svg PUBLIC "-//W3C//DTD SVG 1.1//EN" "http://www.w3.org/Graphics/SVG/1.1/DTD/svg11.dtd" [<!ENTITY ns_flows "http://ns.adobe.com/Flows/1.0/">]><svg version="1.1" xmlns="http://www.w3.org/2000/svg" xmlns:xlink="http://www.w3.org/1999/xlink" xmlns:a="http://ns.adobe.com/AdobeSVGViewerExtensions/3.0/" x="0px" y="0px" width="191px" height="80px" viewBox="0 0 191 80" overflow="visible" enable-background="new 0 0 191 80" xml:space="preserve"><defs></defs><g><path fill="#2D2D2D" d="M130.8,46c-2,0-3.7,0.8-4.6,2.3V46H122v20.4h4.2v-7.6c0.9,1.5,2.6,2.3,4.7,2.3c4.2,0,6.9-3,6.9-7.5
		C137.8,49.1,135,46,130.8,46z M129.8,57.6c-2.2,0-3.7-1.7-3.7-4.1c0-2.4,1.5-4.1,3.7-4.1c2.2,0,3.7,1.7,3.7,4.1
		C133.5,55.9,132,57.6,129.8,57.6z"/></g><g><path fill="#2D2D2D" d="M0,15.2c0.1-0.7,0.7-1.3,1.4-1.3h50.2c0.8,0,1.4,0.6,1.4,1.4v8c0,0.8-0.6,1.4-1.4,1.4h-5.2h-45H0v-1.4v-8
		L0,15.2L0,15.2z"/></g><g><path fill="#2D2D2D" d="M0,15.2c0.1-0.7,0.7-1.3,1.4-1.3h50.2c0.8,0,1.4,0.7,1.4,1.4v8c0,0.8-0.7,1.4-1.4,1.4H0V15.2z"/></g><g><path fill="#2D2D2D" d="M0,43.1c0.1-0.7,0.7-1.3,1.4-1.3h50.2c0.8,0,1.4,0.7,1.4,1.4v8c0,0.8-0.7,1.4-1.4,1.4H0V43.1z"/></g><g><path fill="#2D2D2D" d="M0,70.4c0.1-0.7,0.7-1.3,1.4-1.3h16.7c0.8,0,1.4,0.7,1.4,1.4v8c0,0.8-0.7,1.4-1.4,1.4H0V70.4z"/></g><g><path fill="#18B9E8" d="M72.6,1.3C72.5,0.6,71.9,0,71.2,0H21c-0.8,0-1.4,0.7-1.4,1.4v8c0,0.8,0.7,1.4,1.4,1.4h51.6V1.3z"/></g><g><path fill="#18B9E8" d="M72.6,29.2c-0.1-0.7-0.7-1.3-1.4-1.3H21c-0.8,0-1.4,0.7-1.4,1.4v8c0,0.8,0.7,1.4,1.4,1.4h51.6V29.2z"/></g><g><path fill="#18B9E8" d="M72.6,57c-0.1-0.7-0.7-1.3-1.4-1.3H21c-0.8,0-1.4,0.7-1.4,1.4v8c0,0.8,0.7,1.4,1.4,1.4h51.6V57z"/></g><g><path fill="#2D2D2D" d="M104.9,20.1c0,0.9-0.6,1.5-1.4,1.5c-0.8,0-1.4-0.6-1.4-1.5c0-0.9,0.6-1.5,1.4-1.5
		C104.3,18.6,104.9,19.3,104.9,20.1z"/></g><g><path fill="#2D2D2D" d="M102.4,24.3h2.1v14.5h-2.1V24.3z"/></g><g><polygon fill="#2D2D2D" points="89.5,21.6 89.5,28.4 98.4,28.4 98.4,30.5 89.5,30.5 89.5,38.7 87.3,38.7 87.3,19.5 99.5,19.5 
		99.5,21.6 	"/></g><g><path fill="#2D2D2D" d="M121,26.4l-1.2,1.5c-1.1-1-2.6-1.7-4.3-1.7c-3,0-5.1,2.2-5.1,5.3c0,3.2,2.1,5.4,5.1,5.4
		c1.9,0,3.5-0.7,4.5-1.9l1.2,1.3c-1.3,1.6-3.3,2.5-5.8,2.5c-4.2,0-7.2-3-7.2-7.3c0-4.3,3-7.3,7.2-7.3C117.8,24.2,119.7,25,121,26.4z
		"/></g><g><path fill="#2D2D2D" d="M132.6,37.8c-1,0.7-2.1,1.1-3.3,1.1c-2.1,0-3.7-1.3-3.7-4.1v-8.3h-2.1v-1.7h2.1v-3.8h2.1v3.8l4.6,0v1.8
		h-4.6v7.9c0,1.8,0.7,2.4,1.9,2.4c0.7,0,1.5-0.2,2.3-0.7L132.6,37.8z"/></g><g><path fill="#2D2D2D" d="M138.3,20.1c0,0.9-0.6,1.5-1.4,1.5c-0.8,0-1.4-0.6-1.4-1.5c0-0.9,0.6-1.5,1.4-1.5
		C137.7,18.6,138.3,19.3,138.3,20.1z"/></g><g><rect x="135.9" y="24.3" fill="#2D2D2D" width="2.1" height="14.5"/></g><g><path fill="#2D2D2D" d="M150,24c-4.3,0-7.3,3-7.3,7.3c0,4.3,3,7.3,7.3,7.3s7.3-3,7.3-7.3C157.3,27,154.3,24,150,24z M150,36.7
		c-3,0-5.2-2.2-5.2-5.4c0-3.2,2.2-5.4,5.2-5.4c3,0,5.2,2.2,5.2,5.4C155.2,34.5,153,36.7,150,36.7z"/></g><g><path fill="#2D2D2D" d="M173.4,29.8v8.9h-2.1v-8.3c0-2.6-1.5-4.1-4.1-4.1c-2.9,0-4.6,1.9-4.9,4.6v7.8h-2.1V24.3h2.1v3.2
		c1-2.2,3-3.2,5.6-3.3C171.4,24.2,173.4,26.3,173.4,29.8z"/></g><g><polygon fill="#2D2D2D" points="91.6,45.5 91.6,49.7 100.9,49.7 100.9,53.3 91.6,53.3 91.6,57.6 102.3,57.6 102.3,61.2 87.2,61.2 
		87.2,41.9 102,41.9 102,45.5 	"/></g><g><polygon fill="#2D2D2D" points="114.1,46.3 118.7,46.3 114,53.6 119,61.2 114.2,61.2 111.2,56.3 107.9,61.2 103.2,61.2 108.4,53.6 
		103.6,46.3 108.4,46.3 111.2,50.8 	"/></g><g><path fill="#2D2D2D" d="M143.4,49c1-1.8,2.7-2.8,4.9-2.8v4c-3-0.3-4.9,1.4-4.9,3.9v7.2h-4.3V46.3h4.3V49z"/></g><g><path fill="#2D2D2D" d="M190.1,47.8l-1.5,2.9c-1.6-0.9-3.3-1.4-4.5-1.4c-1,0-1.7,0.3-1.7,1.1c0,2.2,7.8,1.1,7.8,6.4
		c0,3-2.7,4.6-6.1,4.6c-2.4,0-4.8-0.7-6.4-2.1l1.4-2.9c1.5,1.2,3.5,1.9,5.2,1.9c1.1,0,1.9-0.4,1.9-1.2c0-2.4-7.7-1.1-7.7-6.3
		c0-3.1,2.6-4.6,5.9-4.6C186.3,46.2,188.4,46.8,190.1,47.8z"/></g><g><path fill="#2D2D2D" d="M157.4,46c-4.5,0-7.7,3-7.7,7.6c0,4.5,3,7.5,7.8,7.5c2.7,0,4.9-1,6.4-2.6l-2.2-2.3c-1,1-2.3,1.6-3.8,1.6
		c-1.9,0-3.3-1.1-3.8-3h10.7C165,49.3,162.6,46,157.4,46z M153.9,52.5c0.3-2.3,1.6-3.2,3.5-3.2c2,0,3.2,0.9,3.3,3.2H153.9z"/></g><g><path fill="#2D2D2D" d="M176.9,47.8l-1.5,2.9c-1.6-0.9-3.3-1.4-4.5-1.4c-1,0-1.7,0.3-1.7,1.1c0,2.2,7.8,1.1,7.8,6.4
		c0,3-2.7,4.6-6.1,4.6c-2.4,0-4.8-0.7-6.4-2.1l1.4-2.9c1.5,1.2,3.5,1.9,5.2,1.9c1.1,0,1.9-0.4,1.9-1.2c0-2.4-7.7-1.1-7.7-6.3
		c0-3.1,2.6-4.6,5.9-4.6C173.1,46.2,175.2,46.8,176.9,47.8z"/></g></svg>