<?xml version="1.0" encoding="utf-8"?>
<!DOCTYPE svg PUBLIC "-//W3C//DTD SVG 1.1//EN" "http://www.w3.org/Graphics/SVG/1.1/DTD/svg11.dtd" [
	<!ENTITY ns_flows "http://ns.adobe.com/Flows/1.0/">
]>
<svg version="1.1"
	 xmlns="http://www.w3.org/2000/svg" xmlns:xlink="http://www.w3.org/1999/xlink" xmlns:a="http://ns.adobe.com/AdobeSVGViewerExtensions/3.0/"
	 x="0px" y="0px" width="666px" height="70px" viewBox="0 0 666 70" overflow="visible" enable-background="new 0 0 666 70"
	 xml:space="preserve">
<defs>
</defs>
<g>
	<polygon fill="#FFFFFF" points="407,53.5 385,68.8 392.8,43.3 371.5,27.2 398.2,26.7 407,1.5 415.8,26.7 442.5,27.2 421.2,43.3 
		428.9,68.8 	"/>
	<path fill="#00AAA3" d="M407,3l8.2,23.5l0.2,0.7l0.7,0l24.9,0.5l-19.9,15l-0.6,0.4l0.2,0.7l7.1,23.8l-20.4-14.2l-0.6-0.4l-0.6,0.4
		l-20.5,14.2l7.2-23.8l0.2-0.7l-0.6-0.4l-19.9-15.1l24.9-0.5l0.7,0l0.2-0.7L407,3 M407,0l-9.2,26.2L370,26.7l22.2,16.8l-8,26.5
		L407,54.1L429.8,70l-8-26.5L444,26.8l-27.8-0.6L407,0L407,0z"/>
</g>
<g>
	<polygon fill="#FFFFFF" points="481,53.5 459,68.8 466.8,43.3 445.5,27.2 472.2,26.7 481,1.5 489.8,26.7 516.5,27.2 495.2,43.3 
		502.9,68.8 	"/>
	<path fill="#00AAA3" d="M481,3l8.2,23.5l0.2,0.7l0.7,0l24.9,0.5l-19.9,15l-0.6,0.4l0.2,0.7l7.1,23.8l-20.4-14.2l-0.6-0.4l-0.6,0.4
		l-20.5,14.2l7.2-23.8l0.2-0.7l-0.6-0.4l-19.9-15.1l24.9-0.5l0.7,0l0.2-0.7L481,3 M481,0l-9.2,26.2L444,26.7l22.2,16.8l-8,26.5
		L481,54.1L503.8,70l-8-26.5L518,26.8l-27.8-0.6L481,0L481,0z"/>
</g>
<g>
	<polygon fill="#FFFFFF" points="555,53.5 533,68.8 540.8,43.3 519.5,27.2 546.2,26.7 555,1.5 563.8,26.7 590.5,27.2 569.2,43.3 
		576.9,68.8 	"/>
	<path fill="#00AAA3" d="M555,3l8.2,23.5l0.2,0.7l0.7,0l24.9,0.5l-19.9,15l-0.6,0.4l0.2,0.7l7.1,23.8l-20.4-14.2l-0.6-0.4l-0.6,0.4
		l-20.5,14.2l7.2-23.8l0.2-0.7l-0.6-0.4l-19.9-15.1l24.9-0.5l0.7,0l0.2-0.7L555,3 M555,0l-9.2,26.2L518,26.7l22.2,16.8l-8,26.5
		L555,54.1L577.8,70l-8-26.5L592,26.8l-27.8-0.6L555,0L555,0z"/>
</g>
<g>
	<polygon fill="#FFFFFF" points="629,53.5 607,68.8 614.8,43.3 593.5,27.2 620.2,26.7 629,1.5 637.8,26.7 664.5,27.2 643.2,43.3 
		650.9,68.8 	"/>
	<path fill="#00AAA3" d="M629,3l8.2,23.5l0.2,0.7l0.7,0l24.9,0.5l-19.9,15l-0.6,0.4l0.2,0.7l7.1,23.8l-20.4-14.2l-0.6-0.4l-0.6,0.4
		l-20.5,14.2l7.2-23.8l0.2-0.7l-0.6-0.4l-19.9-15.1l24.9-0.5l0.7,0l0.2-0.7L629,3 M629,0l-9.2,26.2L592,26.7l22.2,16.8l-8,26.5
		L629,54.1L651.8,70l-8-26.5L666,26.8l-27.8-0.6L629,0L629,0z"/>
</g>
<g>
	<polygon fill="#00AAA3" points="333,53.5 311,68.8 318.8,43.3 297.5,27.2 324.2,26.7 333,1.5 341.8,26.7 368.5,27.2 347.2,43.3 
		354.9,68.8 	"/>
	<path fill="#00AAA3" d="M333,3l8.2,23.5l0.2,0.7l0.7,0l25,0.5l-19.9,15l-0.6,0.4l0.2,0.7l7.1,23.8l-20.4-14.2l-0.6-0.4l-0.6,0.4
		l-20.5,14.2l7.2-23.8l0.2-0.7l-0.6-0.4l-19.9-15.1l24.9-0.5l0.7,0l0.2-0.7L333,3 M333,0l-9.2,26.2L296,26.7l22.2,16.8l-8,26.5
		L333,54.1L355.8,70l-8-26.5L370,26.8l-27.8-0.6L333,0L333,0z"/>
</g>
<g>
	<polygon fill="#00AAA3" points="37,53.5 15,68.8 22.8,43.3 1.5,27.2 28.2,26.7 37,1.5 45.8,26.7 72.5,27.2 51.2,43.3 58.9,68.8 	
		"/>
	<path fill="#00AAA3" d="M37,3l8.2,23.5l0.2,0.7l0.7,0l24.9,0.5l-19.9,15l-0.6,0.4l0.2,0.7L58,67.5L37.6,53.3L37,52.9l-0.6,0.4
		L15.9,67.5l7.2-23.8l0.2-0.7l-0.6-0.4L2.9,27.6l24.9-0.5l0.7,0l0.2-0.7L37,3 M37,0l-9.2,26.2L0,26.7l22.2,16.8l-8,26.5L37,54.1
		L59.8,70l-8-26.5L74,26.8l-27.8-0.6L37,0L37,0z"/>
</g>
<g>
	<polygon fill="#00AAA3" points="111,53.5 89,68.8 96.8,43.3 75.5,27.2 102.2,26.7 111,1.5 119.8,26.7 146.5,27.2 125.2,43.3 
		132.9,68.8 	"/>
	<path fill="#00AAA3" d="M111,3l8.2,23.5l0.2,0.7l0.7,0l24.9,0.5l-19.9,15l-0.6,0.4l0.2,0.7l7.1,23.8l-20.4-14.2l-0.6-0.4l-0.6,0.4
		L89.9,67.5l7.2-23.8l0.2-0.7l-0.6-0.4L76.9,27.6l24.9-0.5l0.7,0l0.2-0.7L111,3 M111,0l-9.2,26.2L74,26.7l22.2,16.8l-8,26.5
		L111,54.1L133.8,70l-8-26.5L148,26.8l-27.8-0.6L111,0L111,0z"/>
</g>
<g>
	<polygon fill="#00AAA3" points="185,53.5 163,68.8 170.8,43.3 149.5,27.2 176.2,26.7 185,1.5 193.8,26.7 220.5,27.2 199.2,43.3 
		206.9,68.8 	"/>
	<path fill="#00AAA3" d="M185,3l8.2,23.5l0.2,0.7l0.7,0l24.9,0.5l-19.9,15l-0.6,0.4l0.2,0.7l7.1,23.8l-20.4-14.2l-0.6-0.4l-0.6,0.4
		l-20.5,14.2l7.2-23.8l0.2-0.7l-0.6-0.4l-19.9-15.1l24.9-0.5l0.7,0l0.2-0.7L185,3 M185,0l-9.2,26.2L148,26.7l22.2,16.8l-8,26.5
		L185,54.1L207.8,70l-8-26.5L222,26.8l-27.8-0.6L185,0L185,0z"/>
</g>
<g>
	<polygon fill="#00AAA3" points="259,53.5 237,68.8 244.8,43.3 223.5,27.2 250.2,26.7 259,1.5 267.8,26.7 294.5,27.2 273.2,43.3 
		280.9,68.8 	"/>
	<path fill="#00AAA3" d="M259,3l8.2,23.5l0.2,0.7l0.7,0l24.9,0.5l-19.9,15l-0.6,0.4l0.2,0.7l7.1,23.8l-20.4-14.2l-0.6-0.4l-0.6,0.4
		l-20.5,14.2l7.2-23.8l0.2-0.7l-0.6-0.4l-19.9-15.1l24.9-0.5l0.7,0l0.2-0.7L259,3 M259,0l-9.2,26.2L222,26.7l22.2,16.8l-8,26.5
		L259,54.1L281.8,70l-8-26.5L296,26.8l-27.8-0.6L259,0L259,0z"/>
</g>
</svg>
