<?xml version="1.0" encoding="utf-8"?>
<!-- Generator: Adobe Illustrator 25.4.1, SVG Export Plug-In . SVG Version: 6.00 Build 0)  -->
<svg version="1.1" xmlns="http://www.w3.org/2000/svg" xmlns:xlink="http://www.w3.org/1999/xlink" x="0px" y="0px"
	 viewBox="0 0 30 180" style="enable-background:new 0 0 30 180;" xml:space="preserve">
<style type="text/css">
	.st0{display:none;}
	.st1{display:inline;fill:#D6D6D6;}
	.st2{display:inline;fill:#D3D3D3;}
	.st3{fill:#F39D00;}
	.st4{fill:none;stroke:#F39D00;stroke-linecap:round;stroke-linejoin:round;stroke-miterlimit:10;}
	.st5{fill:#FFFFFF;}
	.st6{fill:none;stroke:#FFFFFF;stroke-linecap:round;stroke-linejoin:round;stroke-miterlimit:10;}
	.st7{fill:#9B528D;}
	.st8{fill:#CCCCCC;}
	.st9{fill:#8CC63F;}
	.st10{fill:#0979AA;}
	.st11{fill:#DD0000;}
	.st12{fill:#DB6800;}
	.st13{fill-rule:evenodd;clip-rule:evenodd;fill:#FFFFFF;}
	.st14{fill:none;stroke:#000000;stroke-miterlimit:10;}
	.st15{fill:#631057;}
	.st16{fill:#333333;}
	.st17{fill:none;stroke:#333333;stroke-miterlimit:10;}
	.st18{fill:none;stroke:#FFFFFF;stroke-miterlimit:10;}
	.st19{fill:none;stroke:#FFFFFF;stroke-linecap:round;stroke-linejoin:round;}
	.st20{fill:none;stroke:#F39D00;stroke-width:1.0889;}
	.st21{fill:#8C6D4F;}
	.st22{fill:none;stroke:#FFFFFF;}
	.st23{display:inline;}
	.st24{display:none;fill:#333333;}
	.st25{fill:#121212;}
	.st26{fill:#006AB1;}
	.st27{fill:#DF1212;}
	.st28{display:inline;opacity:0.5;fill:#2B73A9;}
	.st29{fill:#77A80B;}
	.st30{fill:none;stroke:#333333;stroke-width:1.5;stroke-linecap:round;stroke-linejoin:round;stroke-miterlimit:10;}
	.st31{fill:none;stroke:#333333;stroke-linecap:round;stroke-linejoin:round;stroke-miterlimit:10;}
	.st32{fill:none;stroke:#FFFFFF;stroke-width:1.5;stroke-linecap:round;stroke-linejoin:round;stroke-miterlimit:10;}
	.st33{fill:#1D1D1B;}
	.st34{fill:none;stroke:#333333;stroke-width:2;stroke-linecap:round;stroke-linejoin:round;stroke-miterlimit:10;}
	.st35{fill:none;stroke:#FFFFFF;stroke-width:2;stroke-linecap:round;stroke-linejoin:round;stroke-miterlimit:10;}
	.st36{fill:none;stroke:#000000;stroke-linecap:round;stroke-linejoin:round;stroke-miterlimit:10;}
	.st37{fill:none;stroke:#F43838;stroke-width:5.1037;stroke-linecap:round;stroke-linejoin:round;stroke-miterlimit:10;}
	.st38{fill:#F43838;}
	.st39{fill:#E58800;}
	.st40{fill:none;stroke:#E58800;stroke-width:5.1037;stroke-linecap:round;stroke-linejoin:round;stroke-miterlimit:10;}
	.st41{fill:#FFCB00;}
	.st42{fill:none;stroke:#FFCB00;stroke-width:5.1037;stroke-linecap:round;stroke-linejoin:round;stroke-miterlimit:10;}
	.st43{fill:#C9C417;}
	.st44{fill:none;stroke:#C9C417;stroke-width:5.1038;stroke-linecap:round;stroke-linejoin:round;stroke-miterlimit:10;}
	.st45{fill:#95BA43;}
	.st46{fill:none;stroke:#95BA43;stroke-width:5.1037;stroke-linecap:round;stroke-linejoin:round;stroke-miterlimit:10;}
	.st47{fill:none;stroke:#F43838;stroke-width:1.8956;stroke-linecap:round;stroke-linejoin:round;stroke-miterlimit:10;}
	.st48{fill:none;stroke:#E58800;stroke-width:1.8956;stroke-linecap:round;stroke-linejoin:round;stroke-miterlimit:10;}
	.st49{fill:none;stroke:#E58800;stroke-width:1.8957;stroke-linecap:round;stroke-linejoin:round;stroke-miterlimit:10;}
	.st50{fill:none;stroke:#FFCB00;stroke-width:1.8957;stroke-linecap:round;stroke-linejoin:round;stroke-miterlimit:10;}
	.st51{fill:none;stroke:#C9C417;stroke-width:1.8957;stroke-linecap:round;stroke-linejoin:round;stroke-miterlimit:10;}
	.st52{fill:none;stroke:#95BA43;stroke-width:1.8956;stroke-linecap:round;stroke-linejoin:round;stroke-miterlimit:10;}
	.st53{fill:none;stroke:#111111;stroke-width:1.8956;stroke-linecap:round;stroke-linejoin:round;stroke-miterlimit:10;}
	.st54{fill:#111111;}
	.st55{fill:none;stroke:#111111;stroke-width:1.8957;stroke-linecap:round;stroke-linejoin:round;stroke-miterlimit:10;}
	.st56{fill:#EE7A00;}
	.st57{fill:#19B6E9;}
	.st58{fill:#E89F3A;}
	.st59{fill:#F4CB3E;}
	.st60{fill:#08A8A2;}
	.st61{fill:#87C9D3;}
	.st62{fill:#44B2D8;}
	.st63{fill:#DD6389;}
	.st64{fill:#E09EB9;}
	.st65{fill:#1B68A2;}
	.st66{fill:#F4FFDC;}
	.st67{display:inline;fill:none;stroke:#0DAEF8;stroke-linecap:round;stroke-linejoin:round;stroke-miterlimit:10;}
	.st68{display:inline;fill:none;stroke:#0DAEF8;stroke-miterlimit:10;}
</style>
<g id="ref_color" class="st0">
	<rect class="st2" width="30" height="210"/>
</g>
<g id="sprite-iconos">
</g>
<g id="sprite-gestion">
</g>
<g id="sprite-menu">
</g>
<g id="sprite-login" class="st0">
</g>
<g id="sprite-cuestionario" class="st0">
</g>
<g id="sprite-reader" class="st0">
</g>
<g id="sprite_puntuación">
</g>
<g id="sprite-redes">
	<path class="st5" d="M18.21,15.01h-2.1c0,3.36,0,7.49,0,7.49H13c0,0,0-4.09,0-7.49h-1.48v-2.65H13v-1.71
		c0-1.23,0.58-3.14,3.14-3.14l2.31,0.01v2.57c0,0-1.4,0-1.67,0c-0.27,0-0.66,0.14-0.66,0.72v1.56h2.38L18.21,15.01z"/>
	<path class="st5" d="M20.96,41.94c0.01,0.13,0.01,0.26,0.01,0.4c0,4.07-3.1,8.76-8.76,8.76c-1.74,0-3.36-0.51-4.72-1.38
		c0.24,0.03,0.49,0.04,0.73,0.04c1.44,0,2.77-0.49,3.82-1.32c-1.35-0.02-2.48-0.91-2.88-2.14c0.19,0.04,0.38,0.06,0.58,0.06
		c0.28,0,0.55-0.04,0.81-0.11c-1.41-0.28-2.47-1.53-2.47-3.02c0-0.01,0-0.03,0-0.04c0.41,0.23,0.89,0.37,1.39,0.38
		c-0.83-0.55-1.37-1.49-1.37-2.56c0-0.56,0.15-1.09,0.42-1.55c1.52,1.86,3.79,3.09,6.34,3.22c-0.05-0.23-0.08-0.46-0.08-0.7
		c0-1.7,1.38-3.08,3.08-3.08c0.88,0,1.68,0.37,2.25,0.97c0.7-0.14,1.36-0.39,1.96-0.75c-0.23,0.72-0.72,1.32-1.35,1.7
		c0.62-0.07,1.22-0.24,1.77-0.48C22.09,40.97,21.57,41.51,20.96,41.94z"/>
	<g>
		<g>
			<polygon class="st5" points="5.59,129.81 11.08,134.99 5.59,140.62 			"/>
			<polygon class="st5" points="23.38,141.6 6.62,141.6 12.12,136 14.99,138.7 17.91,135.94 			"/>
			<polygon class="st5" points="24.01,128.4 14.99,137.03 5.96,128.4 			"/>
			<polygon class="st5" points="24.41,129.81 24.41,140.62 18.94,134.96 			"/>
		</g>
	</g>
	<g>
		<polygon class="st5" points="22.49,70.76 20.46,70.76 20.46,72.8 19.43,72.8 19.43,70.76 17.4,70.76 17.4,69.74 19.43,69.74 
			19.43,67.7 20.46,67.7 20.46,69.74 22.49,69.74 		"/>
		<path class="st5" d="M15.25,76.08c-0.41-0.31-1.3-0.94-1.3-1.36c0-0.49,0.14-0.74,0.89-1.32c0.76-0.6,1.31-1.39,1.31-2.36
			c0-1.06-0.44-2.03-1.25-2.5h1.16l0.99-1.04c0,0-3.26,0-4.42,0c-2.24,0-4.11,1.65-4.11,3.47c0,1.86,1.23,3.34,3.34,3.34
			c0.15,0,0.29-0.01,0.43-0.02c-0.14,0.26-0.23,0.56-0.23,0.86c0,0.52,0.28,0.81,0.64,1.15c-0.27,0-0.52,0.01-0.8,0.01
			c-2.57,0-4.37,1.77-4.37,3.46c0,1.67,2.17,2.72,4.74,2.72c2.93,0,4.73-1.66,4.73-3.33C16.97,77.83,16.68,77.15,15.25,76.08z
			 M10.17,70.95c-0.21-1.57,0.59-2.76,1.78-2.73c1.19,0.04,2.21,1.32,2.42,2.89c0.21,1.56-0.48,2.57-1.67,2.54
			C11.51,73.6,10.38,72.51,10.17,70.95z M12.23,81.76c-1.78,0-3.06-1.12-3.06-2.47c0-1.32,1.5-2.46,3.28-2.44
			c0.41,0,0.8,0.07,1.15,0.19c0.96,0.67,1.74,1.09,1.94,1.85c0.04,0.15,0.06,0.31,0.06,0.48C15.6,80.71,14.73,81.76,12.23,81.76z"/>
	</g>
	<g>
		<g>
			<path class="st5" d="M16.81,99.15h0.85v3.21c0,0.1,0.02,0.17,0.05,0.21c0.04,0.05,0.09,0.07,0.17,0.07
				c0.06,0,0.14-0.03,0.24-0.09c0.1-0.06,0.18-0.13,0.26-0.23v-3.18h0.86v4.18h-0.86v-0.46c-0.16,0.17-0.32,0.3-0.49,0.39
				c-0.17,0.09-0.34,0.14-0.5,0.14c-0.2,0-0.35-0.06-0.45-0.19c-0.1-0.12-0.15-0.31-0.15-0.56V99.15z"/>
			<polygon class="st5" points="11.31,97.66 11.93,99.93 11.99,99.93 12.59,97.66 13.57,97.66 12.45,100.98 12.45,103.33 
				11.49,103.33 11.49,101.09 10.34,97.66 			"/>
			<path class="st5" d="M15.78,99.35c-0.23-0.2-0.52-0.3-0.87-0.3c-0.39,0-0.7,0.1-0.93,0.29c-0.23,0.19-0.34,0.45-0.34,0.77v2.17
				c0,0.36,0.11,0.64,0.34,0.85c0.22,0.21,0.52,0.32,0.9,0.32c0.39,0,0.69-0.1,0.91-0.31c0.22-0.21,0.33-0.48,0.33-0.84v-2.16
				C16.12,99.81,16,99.55,15.78,99.35z M15.25,102.35c0,0.11-0.03,0.2-0.1,0.27c-0.07,0.06-0.16,0.1-0.28,0.1
				c-0.11,0-0.2-0.03-0.26-0.1c-0.06-0.06-0.09-0.15-0.09-0.27v-2.28c0-0.09,0.03-0.16,0.1-0.22c0.07-0.06,0.15-0.08,0.25-0.08
				c0.11,0,0.21,0.03,0.27,0.08c0.07,0.06,0.1,0.13,0.1,0.22V102.35z"/>
		</g>
		<g>
			<path class="st5" d="M16.4,107.52c-0.05,0-0.11,0.01-0.16,0.04c-0.05,0.03-0.1,0.06-0.16,0.12v2.37
				c0.06,0.06,0.12,0.11,0.18,0.13c0.06,0.03,0.12,0.04,0.18,0.04c0.09,0,0.16-0.03,0.21-0.08c0.04-0.05,0.06-0.14,0.06-0.26v-1.96
				c0-0.13-0.03-0.23-0.08-0.29C16.58,107.56,16.5,107.52,16.4,107.52z"/>
			<path class="st5" d="M19.01,107.54c-0.12,0-0.21,0.03-0.26,0.11c-0.05,0.07-0.08,0.18-0.08,0.34v0.38h0.67v-0.38
				c0-0.16-0.03-0.27-0.08-0.34C19.21,107.57,19.13,107.54,19.01,107.54z"/>
			<path class="st5" d="M19.76,104.65h-9.52c-1.51,0-2.74,1.23-2.74,2.74v2.2c0,1.51,1.23,2.74,2.74,2.74h9.52
				c1.51,0,2.74-1.23,2.74-2.74v-2.2C22.5,105.88,21.27,104.65,19.76,104.65z M12.24,106.37h-0.88v4.4H10.5v-4.4H9.62v-0.75h2.62
				V106.37z M14.74,110.77h-0.76v-0.42c-0.14,0.15-0.29,0.27-0.44,0.35c-0.15,0.08-0.3,0.12-0.44,0.12c-0.18,0-0.31-0.05-0.4-0.17
				c-0.09-0.11-0.13-0.28-0.13-0.51v-3.18h0.76v2.91c0,0.09,0.02,0.15,0.05,0.19c0.03,0.04,0.09,0.06,0.16,0.06
				c0.05,0,0.13-0.03,0.21-0.08c0.09-0.06,0.16-0.12,0.24-0.21v-2.88h0.76V110.77z M17.49,109.98c0,0.27-0.06,0.47-0.18,0.62
				c-0.12,0.14-0.29,0.21-0.52,0.21c-0.15,0-0.28-0.03-0.4-0.08c-0.12-0.06-0.23-0.14-0.33-0.26v0.29h-0.77v-5.15h0.77v1.66
				c0.1-0.11,0.21-0.2,0.33-0.26c0.12-0.06,0.23-0.09,0.35-0.09c0.24,0,0.42,0.08,0.55,0.24c0.13,0.16,0.19,0.4,0.19,0.71V109.98z
				 M20.12,108.96h-1.45v0.71c0,0.2,0.03,0.34,0.07,0.42c0.05,0.08,0.14,0.12,0.26,0.12c0.13,0,0.21-0.03,0.26-0.1
				c0.05-0.07,0.07-0.21,0.07-0.43v-0.17h0.78v0.19c0,0.39-0.09,0.68-0.29,0.88c-0.19,0.2-0.47,0.29-0.85,0.29
				c-0.34,0-0.61-0.1-0.8-0.31c-0.19-0.21-0.29-0.49-0.29-0.86v-1.7c0-0.33,0.11-0.6,0.32-0.81c0.21-0.21,0.49-0.31,0.83-0.31
				c0.35,0,0.62,0.1,0.8,0.29c0.19,0.19,0.28,0.47,0.28,0.83V108.96z"/>
		</g>
	</g>
	<g>
		<g>
			<path class="st5" d="M15.7,162.71c0.19-0.21,0.34-0.42,0.53-0.6c0.58-0.55,1.28-0.83,2.08-0.82c0.44,0,0.88,0.04,1.31,0.16
				c0.98,0.28,1.55,0.96,1.82,1.91c0.2,0.72,0.24,1.45,0.24,2.19c0,1.56,0,3.11,0,4.67c0,0.15-0.04,0.18-0.18,0.18
				c-0.8-0.01-1.6-0.01-2.41,0c-0.14,0-0.17-0.04-0.17-0.18c0-1.48,0.01-2.96,0-4.44c0-0.37-0.02-0.74-0.13-1.1
				c-0.19-0.66-0.67-1-1.36-0.97c-0.95,0.05-1.45,0.52-1.57,1.49c-0.03,0.23-0.04,0.46-0.04,0.69c0,1.44,0,2.88,0,4.32
				c0,0.14-0.04,0.19-0.18,0.18c-0.81-0.01-1.62-0.01-2.42,0c-0.13,0-0.17-0.03-0.17-0.16c0-2.85,0-5.7,0-8.56
				c0-0.14,0.05-0.17,0.18-0.17c0.77,0.01,1.53,0.01,2.3,0c0.14,0,0.18,0.04,0.17,0.18C15.69,162.03,15.7,162.37,15.7,162.71z"/>
			<path class="st5" d="M11.3,165.97c0,1.41,0,2.82,0,4.23c0,0.16-0.04,0.2-0.2,0.2c-0.8-0.01-1.6-0.01-2.41,0
				c-0.13,0-0.17-0.03-0.17-0.16c0-2.86,0-5.71,0-8.57c0-0.12,0.03-0.16,0.15-0.16c0.81,0.01,1.63,0.01,2.44,0
				c0.16,0,0.18,0.06,0.18,0.19C11.3,163.13,11.3,164.55,11.3,165.97z"/>
			<path class="st5" d="M11.52,158.68c0,0.89-0.72,1.61-1.6,1.61c-0.87,0-1.6-0.72-1.6-1.59c0-0.88,0.72-1.61,1.6-1.61
				C10.8,157.09,11.52,157.81,11.52,158.68z"/>
		</g>
	</g>
</g>
<g id="sprite-especiales">
</g>
<g id="Guías">
</g>
<g id="Boolino" class="st0">
</g>
<g id="Data_URI" class="st0">
</g>
</svg>
