<?xml version="1.0" encoding="utf-8"?>
<!-- Generator: Adobe Illustrator 15.1.0, SVG Export Plug-In  -->
<!DOCTYPE svg PUBLIC "-//W3C//DTD SVG 1.1//EN" "http://www.w3.org/Graphics/SVG/1.1/DTD/svg11.dtd" [
	<!ENTITY ns_flows "http://ns.adobe.com/Flows/1.0/">
]>
<svg version="1.1"
	 xmlns="http://www.w3.org/2000/svg" xmlns:xlink="http://www.w3.org/1999/xlink" xmlns:a="http://ns.adobe.com/AdobeSVGViewerExtensions/3.0/"
	 x="0px" y="0px" width="300px" height="90px" viewBox="0 0 300 90" overflow="visible" enable-background="new 0 0 300 90"
	 xml:space="preserve">
<defs>
</defs>
<g>
	<path fill="#F4FFDC" d="M15,30C7,30,0.5,23.5,0.5,15.5S7,1,15,1h30c8,0,14.5,6.5,14.5,14.5S53,30,45,30H15z"/>
	<path fill="#8CC63F" d="M45,1c7.7,0,14,6.3,14,14s-6.3,14-14,14H15C7.3,29,1,22.7,1,15S7.3,1,15,1H45 M45,0H15C6.8,0,0,6.8,0,15
		s6.8,15,15,15h30c8.2,0,15-6.8,15-15S53.2,0,45,0L45,0z"/>
</g>
<path fill="#8CC63F" d="M44.5,26.2c6.2,0,11.2-5,11.2-11.2c0-6.2-5-11.2-11.2-11.2c-6.2,0-11.2,5-11.2,11.2
	C33.3,21.2,38.3,26.2,44.5,26.2z"/>
<g>
	<path fill="#FFFFFF" d="M75,30c-8,0-14.5-6.5-14.5-14.5S67,1,75,1h30c8,0,14.5,6.5,14.5,14.5S113,30,105,30H75z"/>
	<g>
		<path fill="#CCCCCC" d="M105,1c7.7,0,14,6.3,14,14s-6.3,14-14,14H75c-7.7,0-14-6.3-14-14S67.3,1,75,1H105 M105,0H75
			c-8.2,0-15,6.8-15,15s6.8,15,15,15h30c8.2,0,15-6.8,15-15S113.3,0,105,0L105,0z"/>
	</g>
</g>
<path fill="#CCCCCC" d="M75.5,3.7c-6.2,0-11.2,5-11.2,11.2c0,6.2,5,11.2,11.2,11.2c6.2,0,11.2-5,11.2-11.2
	C86.7,8.8,81.7,3.7,75.5,3.7z"/>
</svg>
