<svg width="65" height="65" viewBox="0 0 65 65" fill="none" xmlns="http://www.w3.org/2000/svg">
<path d="M61.5789 26.6175H51.6921C43.5842 26.6175 36.9816 20.345 36.9816 12.6425V3.25C36.9816 1.4625 35.4421 0 33.5605 0H19.0553C8.51842 0 0 6.5 0 18.1025V46.8975C0 58.5 8.51842 65 19.0553 65H45.9447C56.4816 65 65 58.5 65 46.8975V29.8675C65 28.08 63.4605 26.6175 61.5789 26.6175ZM33.4579 44.785L26.6158 51.285C26.3763 51.5125 26.0684 51.7075 25.7605 51.805C25.4526 51.935 25.1447 52 24.8026 52C24.4605 52 24.1526 51.935 23.8447 51.805C23.5711 51.7075 23.2974 51.5125 23.0921 51.3175C23.0579 51.285 23.0237 51.285 23.0237 51.2525L16.1816 44.7525C15.1895 43.81 15.1895 42.25 16.1816 41.3075C17.1737 40.365 18.8158 40.365 19.8079 41.3075L22.2368 43.68V30.0625C22.2368 28.73 23.4 27.625 24.8026 27.625C26.2053 27.625 27.3684 28.73 27.3684 30.0625V43.68L29.8316 41.34C30.8237 40.3975 32.4658 40.3975 33.4579 41.34C34.45 42.2825 34.45 43.8425 33.4579 44.785Z" fill="#F5F5F5"/>
<path d="M51.0753 22.1341C54.3253 22.1666 58.841 22.1666 62.7068 22.1666C64.6568 22.1666 65.6832 19.9891 64.3147 18.6891C59.3884 13.9766 50.5621 5.49408 45.4989 0.68408C44.0963 -0.64842 41.6674 0.26158 41.6674 2.11408V13.4566C41.6674 18.2016 45.9095 22.1341 51.0753 22.1341Z" fill="#F5F5F5"/>
</svg>
