<svg width="61" height="70" viewBox="0 0 61 70" fill="none" xmlns="http://www.w3.org/2000/svg">
<path d="M45.6982 67.0949C48.0906 67.0949 47.7489 70 47.7489 70H16.6469C16.6469 70 16.3052 67.0949 18.6976 67.0949C20.9192 67.0949 21.4319 66.0695 21.4319 65.0442L21.261 56.4997C9.1278 59.234 6.56446 51.7148 6.56446 51.7148C4.51378 46.5881 1.77955 45.3919 1.77955 45.3919C-2.3218 42.6577 1.95044 42.6577 1.95044 42.6577C6.39357 42.9994 8.78602 47.1008 8.78602 47.1008C12.5456 53.7655 18.8685 51.8857 21.4319 50.8604C21.7736 47.9552 22.9699 46.0755 24.1661 44.8792C14.4254 43.8539 4.34289 40.0943 4.34289 23.3471C4.34289 18.5622 6.05179 14.6318 8.78602 11.5557C8.27336 10.5304 6.90624 6.08728 9.29869 0.106139C9.29869 0.106139 12.8874 -1.09009 21.261 4.54927C28.4383 2.49859 35.9575 2.49859 43.1348 4.54927C51.5084 -1.09009 55.0971 0.106139 55.0971 0.106139C57.4896 6.08728 56.1225 10.5304 55.6098 11.5557C58.344 14.6318 60.0529 18.5622 60.0529 23.3471C60.0529 40.0943 49.7995 43.8539 40.0588 44.8792C41.7677 46.2463 43.1348 48.9806 43.1348 53.0819L42.964 65.0442C42.964 66.0695 43.4766 67.0949 45.6982 67.0949Z" fill="white"/>
</svg>
