<svg width="70" height="70" viewBox="0 0 70 70" fill="none" xmlns="http://www.w3.org/2000/svg">
<path d="M59.6433 59.6569H49.2729V43.4191C49.2729 39.5439 49.191 34.5634 43.8694 34.5634C38.4659 34.5634 37.6335 38.7797 37.6335 43.1325V59.6569H27.2632V26.2534H37.2242V30.8109H37.3606C38.7524 28.191 42.1365 25.4211 47.1852 25.4211C57.692 25.4211 59.6296 32.3392 59.6296 41.3314L59.6433 59.6569ZM15.5692 21.6823C12.2261 21.6823 9.55166 18.9805 9.55166 15.6647C9.55166 12.3489 12.2398 9.64717 15.5692 9.64717C18.8986 9.64717 21.5867 12.3489 21.5867 15.6647C21.5867 18.9805 18.885 21.6823 15.5692 21.6823ZM20.768 59.6569H10.3704V26.2534H20.768V59.6569ZM64.8285 0H5.17154C2.31969 0 0 2.25146 0 5.04873V64.9513C0 67.7349 2.30604 70 5.17154 70H64.8148C67.6667 70 70 67.7485 70 64.9513V5.04873C70 2.25146 67.6667 0 64.8285 0Z" fill="white"/>
</svg>
